<?xml version="1.0" encoding="UTF-8"?>
<!DOCTYPE svg PUBLIC "-//W3C//DTD SVG 1.1//EN" "http://www.w3.org/Graphics/SVG/1.1/DTD/svg11.dtd">
<!-- Creator: CorelDRAW X7 -->
<svg xmlns="http://www.w3.org/2000/svg" xml:space="preserve" width="594mm" height="420mm" version="1.1" shape-rendering="geometricPrecision" text-rendering="geometricPrecision" image-rendering="optimizeQuality" fill-rule="evenodd" clip-rule="evenodd"
viewBox="0 0 59400 42000"
 xmlns:xlink="http://www.w3.org/1999/xlink">
 <g id="Ebene_x0020_1">
  <metadata id="CorelCorpID_0Corel-Layer"/>
  <polygon fill="none" fill-rule="nonzero" stroke="blue" stroke-width="7.62" points="6019,4659 7239,4659 7239,4269 7239,4259 7249,4259 8489,4259 8499,4259 8499,4269 8499,4659 9709,4659 9709,4269 9709,4259 9719,4259 10119,4259 10129,4259 10129,4269 10129,4969 10129,4979 10119,4979 9729,4979 9729,5269 9729,5279 9719,5279 8499,5279 8499,5669 8499,5679 8489,5679 7249,5679 7239,5679 7239,5669 7239,5279 6029,5279 6029,5669 6029,5679 6019,5679 5619,5679 5609,5679 5609,5669 5609,4969 5609,4959 5619,4959 6009,4959 6009,4669 6009,4659 "/>
  <g id="_1855982841408">
   <polygon fill="none" fill-rule="nonzero" stroke="blue" stroke-width="7.62" points="1267,4650 2487,4650 2487,4260 2487,4250 2497,4250 3737,4250 3747,4250 3747,4260 3747,4650 4957,4650 4957,4260 4957,4250 4967,4250 5367,4250 5377,4250 5377,4260 5377,4960 5377,4970 5367,4970 4977,4970 4977,5260 4977,5270 4967,5270 3747,5270 3747,5660 3747,5670 3737,5670 2497,5670 2487,5670 2487,5660 2487,5270 1277,5270 1277,5660 1277,5670 1267,5670 867,5670 857,5670 857,5660 857,4960 857,4950 867,4950 1257,4950 1257,4660 1257,4650 "/>
   <path fill="none" fill-rule="nonzero" stroke="lime" stroke-width="7.62" d="M1443 4879c22,0 42,11 57,30 14,18 22,43 22,70 0,27 -8,51 -22,69 -15,19 -35,31 -57,31 -22,0 -42,-12 -56,-31 -14,-18 -23,-42 -23,-69 0,-27 9,-52 23,-70 14,-19 34,-30 56,-30z"/>
  </g>
  <g id="_1855982842432">
   <polygon fill="none" fill-rule="nonzero" stroke="blue" stroke-width="7.62" points="8015,925 8305,925 8315,925 8315,935 8315,1725 8705,1725 8715,1725 8715,1735 8715,2835 8715,2845 8705,2845 8315,2845 8315,3626 8705,3626 8715,3626 8715,3635 8715,4035 8715,4045 8705,4045 8005,4045 7995,4045 7995,4035 7995,3645 7705,3645 7695,3645 7695,3635 7695,2845 7305,2845 7295,2845 7295,2835 7295,1735 7295,1725 7305,1725 7695,1725 7695,945 7305,945 7295,945 7295,935 7295,535 7295,525 7305,525 8005,525 8015,525 8015,535 "/>
   <path fill="none" fill-rule="nonzero" stroke="lime" stroke-width="7.62" d="M7950 1724l110 0c64,0 122,26 163,68 42,42 68,100 68,163l0 660c0,64 -26,122 -68,164 -41,41 -99,67 -163,67l-110 0c-63,0 -121,-26 -163,-67 -42,-42 -68,-100 -68,-164l0 -660c0,-63 26,-121 68,-163 42,-42 100,-68 163,-68z"/>
  </g>
  <polygon fill="none" fill-rule="nonzero" stroke="blue" stroke-width="7.62" points="5643,1735 5643,535 5643,525 5653,525 6353,525 6363,525 6363,535 6363,925 6653,925 6663,925 6663,935 6663,1725 7053,1725 7063,1725 7063,1735 7063,2835 7063,2845 7053,2845 6663,2845 6663,3625 7053,3625 7063,3625 7063,3635 7063,4035 7063,4045 7053,4045 6353,4045 6343,4045 6343,4035 6343,3645 6053,3645 5653,3645 5643,3645 5643,3635 5643,2835 5643,2825 5653,2825 6159,2825 6159,1745 5653,1745 5643,1745 "/>
  <polygon fill="none" fill-rule="nonzero" stroke="blue" stroke-width="7.62" points="900,904 900,514 900,504 910,504 2140,504 2150,504 2150,514 2150,904 3370,904 3370,514 3370,504 3380,504 4610,504 4620,504 4620,514 4620,904 5010,904 5020,904 5020,914 5020,1714 5020,1724 5010,1724 4620,1724 4620,2804 5010,2804 5020,2804 5020,2814 5020,3614 5020,3624 5010,3624 4620,3624 4620,4014 4620,4024 4610,4024 3380,4024 3370,4024 3370,4014 3370,3624 2150,3624 2150,4014 2150,4024 2140,4024 910,4024 900,4024 900,4014 900,3624 510,3624 500,3624 500,3614 500,2814 500,2804 510,2804 900,2804 900,1724 510,1724 500,1724 500,1714 500,914 500,904 510,904 "/>
  <g id="_1855982838560">
   <path fill="none" stroke="black" stroke-width="20" d="M10297 5670l0 -510c0,-550 450,-990 1000,-990l610 0 0 690 -350 0 0 30 -550 0 0 360 900 0 0 420 -1610 0z"/>
   <path fill="none" stroke="black" stroke-width="20" d="M12207 5670l0 -430 900 0 0 -350 -550 0 0 -30 -350 0 0 -690 610 0c550,0 1000,450 1000,1000l0 500 -1610 0z"/>
  </g>
  <g id="_1855982840320">
   <path fill="none" stroke="black" stroke-width="20" d="M13967 5670l0 -510c0,-550 450,-990 1000,-990l610 0 0 690 -350 0 0 30 -550 0 0 360 900 0 0 420 -1610 0z"/>
   <path fill="none" stroke="black" stroke-width="20" d="M15877 5670l0 -430 900 0 0 -350 -550 0 0 -30 -350 0 0 -690 610 0c550,0 1000,450 1000,1000l0 500 -1610 0z"/>
  </g>
  <g id="_1855982836992">
   <path fill="none" stroke="black" stroke-width="20" d="M17637 5670l0 -510c0,-550 450,-990 1000,-990l610 0 0 690 -350 0 0 30 -550 0 0 360 900 0 0 420 -1610 0z"/>
   <path fill="none" stroke="black" stroke-width="20" d="M19547 5670l0 -430 900 0 0 -350 -550 0 0 -30 -350 0 0 -690 610 0c550,0 1000,450 1000,1000l0 500 -1610 0z"/>
  </g>
  <g id="_1855982838528">
   <path fill="none" stroke="black" stroke-width="20" d="M21307 5670l0 -510c0,-550 450,-990 1000,-990l610 0 0 690 -350 0 0 30 -550 0 0 360 900 0 0 420 -1610 0z"/>
   <path fill="none" stroke="black" stroke-width="20" d="M23217 5670l0 -430 900 0 0 -350 -550 0 0 -30 -350 0 0 -690 610 0c550,0 1000,450 1000,1000l0 500 -1610 0z"/>
  </g>
  <g id="_1855982838272">
   <path fill="none" stroke="black" stroke-width="20" d="M24977 5670l0 -510c0,-550 450,-990 1000,-990l610 0 0 690 -350 0 0 30 -550 0 0 360 900 0 0 420 -1610 0z"/>
   <path fill="none" stroke="black" stroke-width="20" d="M26887 5670l0 -430 900 0 0 -350 -550 0 0 -30 -350 0 0 -690 610 0c550,0 1000,450 1000,1000l0 500 -1610 0z"/>
  </g>
  <path fill="none" stroke="#9900CC" stroke-width="7.62" d="M27927 4020l273 0c165,0 300,-135 300,-300l0 -410 6 0 0 -2100 -6 0 0 -410c0,-165 -135,-300 -300,-300l-273 0 0 710 -360 0 0 -710 -2840 0 0 710 -360 0 0 -710 -4640 0 0 710 -360 0 0 -710 -4640 0 0 710 -360 0 0 -710 -900 0 -10 0 0 10 0 1190 -380 0 0 -1190 0 -10 -10 0 -1230 0 -10 0 0 10 0 390 -1220 0 0 -390 0 -10 -10 0 -1230 0 -10 0 0 10 0 390 -390 0 -10 0 0 10 0 800 0 10 10 0 390 0 0 1080 -390 0 -10 0 0 10 0 800 0 10 10 0 390 0 0 390 0 10 10 0 1230 0 10 0 0 -10 0 -390 1220 0 0 390 0 10 10 0 1230 0 10 0 0 -10 0 -1190 380 0 0 1190 0 10 10 0 900 0 0 -710 360 0 0 710 4640 0 0 -710 360 0 0 710 4640 0 0 -710 360 0 0 710 2840 0 0 -710 360 0 0 710z"/>
  <path fill="none" stroke="blue" stroke-width="7.62" d="M30782 5467l0 -4500 -1500 0c-275,0 -500,225 -500,500l0 3500c0,275 225,500 500,500l1500 0z"/>
  <polygon fill="none" stroke="lime" stroke-width="7.62" points="30372,3777 30372,4977 29692,4977 29692,4967 29692,4577 29982,4577 29992,4577 29992,4567 29992,3777 30362,3777 "/>
  <polygon fill="none" stroke="lime" stroke-width="7.62" points="30372,1877 30372,2657 29992,2657 29992,1877 "/>
  <polygon fill="none" stroke="lime" stroke-width="7.62" points="28992,2657 28992,1457 29672,1457 29672,1467 29672,1857 29382,1857 29372,1857 29372,1867 29372,2657 29002,2657 "/>
  <polygon fill="none" stroke="lime" stroke-width="7.62" points="28992,4557 28992,3777 29002,3777 29372,3777 29372,4557 29002,4557 "/>
  <path fill="none" stroke="lime" stroke-width="7.62" d="M29354 3634l0 -834c0,-110 90,-200 200,-200l255 0c110,0 200,90 200,200l0 834c0,110 -90,200 -200,200l-255 0c-110,0 -200,-90 -200,-200z"/>
 </g>
</svg>
