<?xml version="1.0" encoding="UTF-8" standalone="no"?>
<!-- Creator: CorelDRAW X5 -->

<svg xmlns:dc="http://purl.org/dc/elements/1.1/" xmlns:cc="http://creativecommons.org/ns#" xmlns:rdf="http://www.w3.org/1999/02/22-rdf-syntax-ns#" xmlns:svg="http://www.w3.org/2000/svg" xmlns="http://www.w3.org/2000/svg" xmlns:sodipodi="http://sodipodi.sourceforge.net/DTD/sodipodi-0.dtd" xmlns:inkscape="http://www.inkscape.org/namespaces/inkscape" xml:space="preserve" width="297.8962097mm" height="62.49620056mm" viewBox="0 0 29789.62097 6249.620056" version="1.1" id="svg4618" sodipodi:docname="FLKA-Lightboard-higher.svg" style="clip-rule:evenodd;fill-rule:evenodd;image-rendering:optimizeQuality;shape-rendering:geometricPrecision;text-rendering:geometricPrecision" inkscape:version="0.92.3 (2405546, 2018-03-11)"><metadata id="metadata4624"><rdf:RDF><cc:Work rdf:about=""><dc:format>image/svg+xml</dc:format><dc:type rdf:resource="http://purl.org/dc/dcmitype/StillImage" /><dc:title></dc:title></cc:Work></rdf:RDF></metadata><defs id="defs4622">
  
  
  
  
  
  
  
  
  
  
  
  
  
  
  
  
  
  
  
  
  
  
  
 </defs><sodipodi:namedview pagecolor="#ffffff" bordercolor="#666666" borderopacity="1" objecttolerance="10" gridtolerance="10" guidetolerance="10" inkscape:pageopacity="0" inkscape:pageshadow="2" inkscape:window-width="2059" inkscape:window-height="1422" id="namedview4620" showgrid="false" fit-margin-top="5" fit-margin-left="5" fit-margin-bottom="5" fit-margin-right="5" inkscape:zoom="0.8137941919" inkscape:cx="482.5315267" inkscape:cy="80.60229358" inkscape:window-x="150" inkscape:window-y="50" inkscape:window-maximized="0" inkscape:current-layer="svg4618" />
 <polygon style="fill:none;stroke:blue;stroke-width:7.6199998856" id="polygon4573" points="6939,4159 8179,4159 8189,4159 8189,4169 8189,4559 9399,4559 9399,4169 9399,4159 9409,4159 9809,4159 9819,4159 9819,4169 9819,5019 9819,5029 9809,5029 9419,5029 9419,5319 9419,5329 9409,5329 8189,5329 8189,5719 8189,5729 8179,5729 6939,5729 6929,5729 6929,5719 6929,5329 5719,5329 5719,5719 5719,5729 5709,5729 5309,5729 5299,5729 5299,5719 5299,4869 5299,4859 5309,4859 5699,4859 5699,4569 5699,4559 6929,4559 6929,4169 6929,4159 " transform="translate(3.810001255,16.81000125)" /><polygon style="fill:none;stroke:blue;stroke-width:7.6199998856" id="polygon4575" points="2187,4150 3427,4150 3437,4150 3437,4160 3437,4550 4647,4550 4647,4160 4647,4150 4657,4150 5057,4150 5067,4150 5067,4160 5067,5010 5067,5020 5057,5020 4667,5020 4667,5310 4667,5320 4657,5320 3437,5320 3437,5710 3437,5720 3427,5720 2187,5720 2177,5720 2177,5710 2177,5320 967,5320 967,5710 967,5720 957,5720 557,5720 547,5720 547,5710 547,4860 547,4850 557,4850 947,4850 947,4560 947,4550 2177,4550 2177,4160 2177,4150 " transform="translate(3.810001255,16.81000125)" /><path style="fill:none;stroke:lime;stroke-width:7.6199998856" inkscape:connector-curvature="0" id="path4577" d="m 1167.860001,4867.210001 c 30.64,0 58.5,15.32 79.4,41.79 c 19.5,25.07 30.64,59.9 30.64,97.51 c 0,37.61 -11.14,71.04 -30.64,96.12 c -20.9,26.46 -48.76,43.18 -79.4,43.18 c -30.65,0 -58.51,-16.72 -78.01,-43.18 c -19.5,-25.08 -32.04,-58.51 -32.04,-96.12 c 0,-37.61 12.54,-72.44 32.04,-97.51 c 19.5,-26.47 47.36,-41.79 78.01,-41.79 z" /><polygon style="fill:none;stroke:blue;stroke-width:7.6199998856" id="polygon4579" points="6203,525 6213,525 6213,535 6213,925 6653,925 6663,925 6663,935 6663,1725 7053,1725 7063,1725 7063,1735 7063,2835 7063,2845 7053,2845 6663,2845 6663,3625 7053,3625 7063,3625 7063,3635 7063,4035 7063,4045 7053,4045 6203,4045 6193,4045 6193,4035 6193,3645 5903,3645 5503,3645 5493,3645 5493,3635 5493,2835 5493,2825 5503,2825 6009,2825 6009,1745 5503,1745 5493,1745 5493,1735 5493,535 5493,525 5503,525 " transform="translate(3.810001255,16.81000125)" /><polygon style="fill:none;stroke:blue;stroke-width:7.6199998856" id="polygon4581" points="2140,504 2150,504 2150,514 2150,904 3370,904 3370,514 3370,504 3380,504 4610,504 4620,504 4620,514 4620,904 5010,904 5020,904 5020,914 5020,1714 5020,1724 5010,1724 4620,1724 4620,2804 5010,2804 5020,2804 5020,2814 5020,3614 5020,3624 5010,3624 4620,3624 4620,4014 4620,4024 4610,4024 3380,4024 3370,4024 3370,4014 3370,3624 2150,3624 2150,4014 2150,4024 2140,4024 910,4024 900,4024 900,4014 900,3624 510,3624 500,3624 500,3614 500,2814 500,2804 510,2804 900,2804 900,1724 510,1724 500,1724 500,1714 500,914 500,904 510,904 900,904 900,514 900,504 910,504 " transform="translate(3.810001255,16.81000125)" /><path style="fill:none;stroke:black;stroke-width:20" inkscape:connector-curvature="0" id="path4583" d="m 9940.810001,5686.810001 v -510 c 0,-550 449.999999,-990 999.999999,-990 h 610 v 690 h -350 v 30 h -550 v 360 h 900 v 420 z" /><path style="fill:none;stroke:black;stroke-width:20" inkscape:connector-curvature="0" id="path4585" d="m 11710.81,5686.810001 v -430 h 900 v -350 h -550 v -30 h -350 v -690 h 610 c 550,0 1000,450 1000,1000 v 500 z" /><path style="fill:none;stroke:black;stroke-width:20" inkscape:connector-curvature="0" id="path4587" d="m 13440.81,5686.810001 v -510 c 0,-550 450,-990 1000,-990 h 610 v 690 h -350 v 30 h -550 v 360 h 900 v 420 z" /><path style="fill:none;stroke:black;stroke-width:20" inkscape:connector-curvature="0" id="path4589" d="m 15150.81,5686.810001 v -430 h 900 v -350 h -550 v -30 h -350 v -690 h 610 c 550,0 1000,450 1000,1000 v 500 z" /><path style="fill:none;stroke:black;stroke-width:20" inkscape:connector-curvature="0" id="path4591" d="m 16850.81,5686.810001 v -510 c 0,-550 450,-990 1000,-990 h 610 v 690 h -350 v 30 h -550 v 360 h 900 v 420 z" /><path style="fill:none;stroke:black;stroke-width:20" inkscape:connector-curvature="0" id="path4593" d="m 18570.81,5686.810001 v -430 h 900 v -350 h -550 v -30 h -350 v -690 h 610 c 550,0 1000,450 1000,1000 v 500 z" /><path style="fill:none;stroke:black;stroke-width:20" inkscape:connector-curvature="0" id="path4595" d="m 20290.81,5686.810001 v -510 c 0,-550 450,-990 1000,-990 h 610 v 690 h -350 v 30 h -550 v 360 h 900 v 420 z" /><path style="fill:none;stroke:black;stroke-width:20" inkscape:connector-curvature="0" id="path4597" d="m 22000.81,5686.810001 v -430 h 900 v -350 h -550 v -30 h -350 v -690 h 610 c 550,0 1000,450 1000,1000 v 500 z" /><path style="fill:none;stroke:black;stroke-width:20" inkscape:connector-curvature="0" id="path4599" d="m 23730.81,5686.810001 v -510 c 0,-550 450,-990 1000,-990 h 610 v 690 h -350 v 30 h -550 v 360 h 900 v 420 z" /><path style="fill:none;stroke:black;stroke-width:20" inkscape:connector-curvature="0" id="path4601" d="m 25450.81,5686.810001 v -430 h 900 v -350 h -550 v -30 h -350 v -690 h 610 c 550,0 1000,450 1000,1000 v 500 z" /><path style="fill:none;stroke:#90c;stroke-width:7.6199998856" inkscape:connector-curvature="0" id="path4603" d="m 26330.81,4036.810001 h 273 c 165,0 300,-135 300,-300 v -410 h 6 v -2100 h -6 V 816.8100013 c 0,-165 -135,-300 -300,-300 h -273 v 709.9999997 h -360 V 516.8100013 h -2840 v 709.9999997 h -360 V 516.8100013 h -4640 v 709.9999997 h -360 V 516.8100013 h -4640 v 709.9999997 h -360 V 516.8100013 h -900 h -10 v 10 V 1716.810001 h -380 V 526.8100013 v -10 h -10 h -1230 h -10 v 10 v 390 H 9010.810001 v -390 v -10 h -10 h -1230 h -10 v 10 v 390 h -390 h -10 v 10 v 799.9999997 v 10 h 10 h 390 v 1080 h -390 h -10 v 10 v 800 v 10 h 10 h 390 v 390 v 10 h 10 h 1230 h 10 v -10 v -390 H 10230.81 v 390 v 10 h 10 h 1230 h 10 v -10 v -1190 h 380 v 1190 v 10 h 10 h 900 v -710 h 360 v 710 h 4640 v -710 h 360 v 710 h 4640 v -710 h 360 v 710 h 2840 v -710 h 360 z" /><path style="fill:none;stroke:blue;stroke-width:7.6199998856" inkscape:connector-curvature="0" id="path4605" d="M 29285.81,5003.810001 V 503.8100013 h -1650 c -275,0 -500,225 -500,499.9999997 v 3500 c 0,275 225,500 500,500 z" /><polygon style="fill:none;stroke:lime;stroke-width:7.6199998856" id="polygon4607" points="28192,4097 28482,4097 28492,4097 28492,4087 28492,3297 28862,3297 28872,3297 28872,4497 28192,4497 28192,4487 " transform="translate(3.810001255,16.81000125)" /><polygon style="fill:none;stroke:lime;stroke-width:7.6199998856" id="polygon4609" points="28872,1397 28872,2177 28492,2177 28492,1397 " transform="translate(3.810001255,16.81000125)" /><polygon style="fill:none;stroke:lime;stroke-width:7.6199998856" id="polygon4611" points="28022,1377 27732,1377 27722,1377 27722,1387 27722,2177 27352,2177 27342,2177 27342,977 28022,977 28022,987 " transform="translate(3.810001255,16.81000125)" /><polygon style="fill:none;stroke:lime;stroke-width:7.6199998856" id="polygon4613" points="27722,4077 27352,4077 27342,4077 27342,3297 27352,3297 27722,3297 " transform="translate(3.810001255,16.81000125)" /><path style="fill:none;stroke:lime;stroke-width:7.6199998856" inkscape:connector-curvature="0" id="path4615" d="m 27736.01,3185.600001 v -871.75 c 0,-114.98 103.99,-209.05 231.1,-209.05 h 294.65 c 127.11,0 231.1,94.07 231.1,209.05 v 871.75 c 0,114.98 -103.99,209.05 -231.1,209.05 h -294.65 c -127.11,0 -231.1,-94.07 -231.1,-209.05 z" />
</svg>